# xmcd
#
# Track frame offsets:
#	150
#	17319
#	28091
#	40238
#	55726
#	72319
#	84542
#	103186
#	110792
#	127285
#	140396
#	155294
#	167146
#	184846
#	196921
#	223569
#	236569
#	248345
#	259999
#	270733
#	282228
#	294531
#	309596
#	323497
#
# Disc length: 4444 seconds
#
# Revision: 2
# Processed by: cddbd v1.5.2PL0 Copyright (c) Steve Scherf et al.
# Submitted via: EZCDDA 4.3.2
#
DISCID=5f115a18
DTITLE=Dan Moisescu - Bordeias, bordei, bordei
DYEAR=1900
DGENRE=
TTITLE0=Bordeias, bordei, bordei
TTITLE1=Pana cand nu te iubeam
TTITLE2=Cantecul lui Barbu Lautaru (Ion Paturica - cobza)
TTITLE3=Floricica de cicoare
TTITLE4=Sabarelul
TTITLE5=Am o mandra la Ploiesti
TTITLE6=Spune, spune, mos batran
TTITLE7=Lelita carciumareasa
TTITLE8=Iancu Jianu
TTITLE9=Cantec de dragoste ca pe Vlasca
TTITLE10=Copilul strain
TTITLE11=Fir-ai dorule nebun
TTITLE12=Balada Radei
TTITLE13=Merisorii
TTITLE14=Cand toca la Radu-Voda
TTITLE15=Ah, mi-e dor, mi-e dor de tine
TTITLE16=Du-ma dorule, mai tare
TTITLE17=Busuioc de la Plenita
TTITLE18=Sus pe dealul inverzit
TTITLE19=Necheaza murgu-n obor
TTITLE20=Ia, mai zi din frunza
TTITLE21=Trece lelea pe colnic
TTITLE22=De m-as face o cararusa
TTITLE23=Si noi la Ilinca
EXTD=
EXTT0=
EXTT1=
EXTT2=
EXTT3=
EXTT4=
EXTT5=
EXTT6=
EXTT7=
EXTT8=
EXTT9=
EXTT10=
EXTT11=
EXTT12=
EXTT13=
EXTT14=
EXTT15=
EXTT16=
EXTT17=
EXTT18=
EXTT19=
EXTT20=
EXTT21=
EXTT22=
EXTT23=
PLAYORDER=
